<?xml version="1.0" encoding="UTF-8" standalone="no"?>
<svg
   xmlns:dc="http://purl.org/dc/elements/1.1/"
   xmlns:cc="http://creativecommons.org/ns#"
   xmlns:rdf="http://www.w3.org/1999/02/22-rdf-syntax-ns#"
   xmlns:svg="http://www.w3.org/2000/svg"
   xmlns="http://www.w3.org/2000/svg"
   xmlns:sodipodi="http://sodipodi.sourceforge.net/DTD/sodipodi-0.dtd"
   xmlns:inkscape="http://www.inkscape.org/namespaces/inkscape"
   viewBox="0 0 512 512"
   style="height: 512px; width: 512px;"
   version="1.1"
   id="svg32"
   sodipodi:docname="hyrbid_plant.svg"
   inkscape:version="0.92.1 r15371">
  <metadata
     id="metadata38">
    <rdf:RDF>
      <cc:Work
         rdf:about="">
        <dc:format>image/svg+xml</dc:format>
        <dc:type
           rdf:resource="http://purl.org/dc/dcmitype/StillImage" />
        <dc:title></dc:title>
      </cc:Work>
    </rdf:RDF>
  </metadata>
  <defs
     id="defs36" />
  <sodipodi:namedview
     pagecolor="#ffffff"
     bordercolor="#666666"
     borderopacity="1"
     objecttolerance="10"
     gridtolerance="10"
     guidetolerance="10"
     inkscape:pageopacity="0"
     inkscape:pageshadow="2"
     inkscape:window-width="1920"
     inkscape:window-height="1153"
     id="namedview34"
     showgrid="false"
     inkscape:zoom="0.4609375"
     inkscape:cx="-132.33898"
     inkscape:cy="256"
     inkscape:window-x="-4"
     inkscape:window-y="-4"
     inkscape:window-maximized="1"
     inkscape:current-layer="svg32" />
  <g
     class=""
     transform="matrix(0.7,0,0,0.7,-59.283104,159.24068)"
     id="g30"
     style="fill:#404040;fill-opacity:1">
    <path
       fill="rgba(64, 64, 64, 1)"
       d="m 401.642,85.436 v -15.08 a 21.548,21.548 0 0 1 5.696,8.903 31.363,31.363 0 0 1 -5.696,6.176 z M 411,68.31 v 0.725 c 0,25.923 -53.59,46.933 -155,46.933 -106.453,0 -155,-21.057 -155,-46.933 V 68.31 67.783 c 0,-15.008 16.728,-26.905 49.705,-35.246 28.24,-7.183 65.627,-11.137 105.283,-11.137 39.657,0 77.056,3.954 105.283,11.137 32.99,8.387 49.707,20.238 49.707,35.246 0.023,0.187 0,0.35 -0.012,0.527 z M 233.996,67.783 c 0,-4.13 -13.184,-7.487 -29.444,-7.487 -16.26,0 -29.444,3.346 -29.444,7.487 0,4.14 13.183,7.487 29.444,7.487 16.26,0 29.42,-3.346 29.42,-7.475 z m 167.646,97.89 V 105.51 q -12.997,9.92 -39.634,16.705 c -28.473,7.24 -66.117,11.218 -106.008,11.218 -39.89,0 -77.535,-3.99 -106.008,-11.218 q -26.614,-6.762 -39.634,-16.705 v 60.163 C 104.135,170.96 101,176.856 101,183.35 v 1.122 c 0,25.91 48.547,46.968 155,46.968 101.41,0 155,-21.057 155,-46.933 v -0.655 -0.468 c 0,-6.528 -3.135,-12.423 -9.358,-17.71 z m 0,128.89 v -73.488 q -12.997,9.92 -39.634,16.705 c -28.473,7.24 -66.117,11.207 -106.008,11.207 -39.89,0 -77.535,-3.99 -106.008,-11.22 q -26.614,-6.76 -39.634,-16.703 V 294.61 C 104.135,299.897 101,305.793 101,312.285 v 0.89 c 0,25.887 48.547,46.944 155,46.944 101.41,0 155,-21.058 155,-46.934 v -0.514 -0.375 c 0,-6.55 -3.135,-12.447 -9.358,-17.687 z m 8.878,145.396 q -1.626,-7.254 -8.878,-13.42 v -76.587 q -12.997,9.92 -39.634,16.705 c -28.46,7.24 -66.117,11.22 -106.008,11.22 -39.89,0 -77.547,-3.99 -106.008,-11.22 q -26.614,-6.76 -39.634,-16.705 v 76.588 q -7.24,6.154 -8.878,13.42 a 14.786,14.786 0 0 0 -0.48,3.707 v 0.56 q 0,8.448 7.02,15.537 c 16.96,17.99 64.77,30.836 147.98,30.836 60.245,0 103.598,-7.417 128.89,-18.87 17.336,-7.498 26.11,-16.646 26.11,-27.513 v -0.293 -0.27 a 14.786,14.786 0 0 0 -0.48,-3.695 z"
       id="path28"
       inkscape:connector-curvature="0"
       style="fill:#404040;fill-opacity:1" />
  </g>
  <g
     class=""
     transform="matrix(0.7,0,0,0.7,163.22339,156.44565)"
     id="g4547"
     style="stroke:#000000;stroke-opacity:1;fill:#a2522a;fill-opacity:1">
    <path
       fill="rgba(162, 82, 42, 1)"
       d="M 304,64 C 280.277,65.039 240,96 208,112 176,101.333 128.876,74.66 112,80 89.804,87.024 64.626,124.154 40.467,151 H 476.186 C 467.4,130.604 444.747,80.887 432,80 416.002,78.887 352,128 352,128 336,106.667 315.43,63.5 304,64 Z M 27.133,169 71.277,375 H 119 V 169 Z M 137,169 v 14 h 46 v -14 z m 64,0 v 206 h 239.725 l 44.142,-206 z m -64,32 v 14 h 46 v -14 z m 0,32 v 14 h 46 v -14 z m 0,32 v 14 h 46 v -14 z m 0,32 v 14 h 46 v -14 z m 0,32 v 14 h 46 v -14 z m 0,32 v 14 h 46 V 361 Z M 25,393 v 30 h 462 v -30 z m 11.822,48 C 34.387,445.436 33,450.543 33,456 c 0,17.227 13.773,31 31,31 17.227,0 31,-13.773 31,-31 0,-5.457 -1.387,-10.564 -3.822,-15 z m 80,0 c -2.435,4.436 -3.822,9.543 -3.822,15 0,17.227 13.773,31 31,31 17.227,0 31,-13.773 31,-31 0,-5.457 -1.387,-10.564 -3.822,-15 z m 81.74,0 15,30 h 84.875 l 15,-30 H 198.563 Z m 142.26,0 c -2.435,4.436 -3.822,9.543 -3.822,15 0,17.227 13.773,31 31,31 17.227,0 31,-13.773 31,-31 0,-5.457 -1.387,-10.564 -3.822,-15 z m 80,0 c -2.435,4.436 -3.822,9.543 -3.822,15 0,17.227 13.773,31 31,31 17.227,0 31,-13.773 31,-31 0,-5.457 -1.387,-10.564 -3.822,-15 z"
       id="path4545"
       inkscape:connector-curvature="0"
       style="stroke:#000000;stroke-opacity:1;fill:#a2522a;fill-opacity:1" />
  </g>
</svg>
